<svg xmlns="http://www.w3.org/2000/svg" viewBox="0 0 30 30"><defs><style>.cls-1{fill:#cc9e36;}.cls-2{fill:#e2cd98;}.cls-3{fill:#f4f4f4;}.cls-4{fill:#fff;}.cls-5{fill:#f9c228;}.cls-6{fill:#f9cb58;}.cls-7{fill:#e2aa1e;opacity:0.56;}</style></defs><title>frymenu-100</title><g id="Layer_6" data-name="Layer 6"><path class="cls-1" d="M13.62,24.31c-1.2.22-1.41,1-2.54,1.67A4.78,4.78,0,0,1,6.63,26a4.45,4.45,0,0,1-2.08-2.38,8.06,8.06,0,0,0-.4-1.43,15.82,15.82,0,0,0-.87-1.49,8.09,8.09,0,0,1-.69-1.37c-.27-.79-.09-1.19,0-2.62.13-2.13-.21-2.27.12-3s.91-.86,1.91-1.84C6.08,10.41,5.7,9.58,7,7.94A10.24,10.24,0,0,1,10.21,5.5a11.37,11.37,0,0,1,4.45-1.73,10.54,10.54,0,0,1,5.2.71,16.12,16.12,0,0,1,3.64,2.38c3,2.27,4.46,3.43,4.27,4.52s-1.77,1-2.43,2.8a3.61,3.61,0,0,0-.12,2.32c.27.82.75.95,1.33,2.2A3.24,3.24,0,0,1,27,20.14c0,1-1,1.32-2,2.74-1.22,1.62-.78,2.27-1.67,2.86s-2.06.35-3.81-.06c-1.4-.32-1.94-.7-4.1-1.19A4.12,4.12,0,0,0,13.62,24.31Z"/><path class="cls-2" d="M15,24.31c-1.2.22-1.41,1-2.54,1.67A4.78,4.78,0,0,1,8,26,4.45,4.45,0,0,1,6,23.65a8.06,8.06,0,0,0-.4-1.43,15.82,15.82,0,0,0-.87-1.49A8.09,8.09,0,0,1,4,19.37c-.27-.79-.09-1.19,0-2.62.13-2.13-.21-2.27.12-3S5,12.85,6,11.87C7.5,10.41,7.11,9.58,8.45,7.94A10.24,10.24,0,0,1,11.63,5.5a11.37,11.37,0,0,1,4.45-1.73,10.54,10.54,0,0,1,5.2.71,16.12,16.12,0,0,1,3.64,2.38c3,2.27,4.46,3.43,4.27,4.52s-1.77,1-2.43,2.8a3.61,3.61,0,0,0-.12,2.32c.27.82.75.95,1.33,2.2a3.24,3.24,0,0,1,.46,1.43c0,1-1,1.32-2,2.74-1.22,1.62-.78,2.27-1.67,2.86s-2.06.35-3.81-.06c-1.4-.32-1.94-.7-4.1-1.19A4.12,4.12,0,0,0,15,24.31Z"/><path class="cls-3" d="M12.2,23c-1.2.22-1.41,1-2.54,1.62a4.91,4.91,0,0,1-4.45.06,4.38,4.38,0,0,1-2.08-2.31,7.64,7.64,0,0,0-.4-1.39,15.25,15.25,0,0,0-.87-1.44,7.76,7.76,0,0,1-.69-1.33c-.27-.76-.09-1.16,0-2.54.13-2.06-.21-2.21.12-2.95s.91-.84,1.91-1.79C4.67,9.48,4.28,8.67,5.62,7.08A10.21,10.21,0,0,1,8.8,4.71,11.57,11.57,0,0,1,13.24,3a10.84,10.84,0,0,1,5.2.69A16.19,16.19,0,0,1,22.08,6c3,2.21,4.46,3.33,4.27,4.39s-1.77,1-2.43,2.71a3.41,3.41,0,0,0-.12,2.25c.27.79.75.92,1.33,2.14a3.08,3.08,0,0,1,.46,1.39c0,1-1,1.28-2,2.66-1.22,1.58-.78,2.2-1.67,2.77s-2.06.34-3.81-.06c-1.4-.31-1.94-.68-4.1-1.15A4.24,4.24,0,0,0,12.2,23Z"/><path class="cls-4" d="M14,24.31c-1.24.22-1.45,1-2.62,1.67A5.05,5.05,0,0,1,6.76,26a4.51,4.51,0,0,1-2.14-2.38,7.87,7.87,0,0,0-.42-1.43,15.72,15.72,0,0,0-.89-1.49,8,8,0,0,1-.71-1.37c-.28-.79-.09-1.19,0-2.62.13-2.13-.21-2.27.12-3s.94-.86,2-1.84c1.52-1.46,1.12-2.29,2.5-3.93A10.52,10.52,0,0,1,10.45,5.5,11.92,11.92,0,0,1,15,3.78a11.18,11.18,0,0,1,5.36.71,16.68,16.68,0,0,1,3.75,2.38c3.07,2.27,4.6,3.43,4.4,4.52s-1.83,1-2.5,2.8a3.51,3.51,0,0,0-.12,2.32c.28.82.77.95,1.37,2.2a3.17,3.17,0,0,1,.48,1.43c0,1-1,1.32-2.08,2.74-1.26,1.62-.8,2.27-1.73,2.86s-2.12.35-3.93-.06c-1.44-.32-2-.7-4.23-1.19A4.37,4.37,0,0,0,14,24.31Z"/><path class="cls-5" d="M10.39,12a4.85,4.85,0,0,0-2.88,1.5,4.72,4.72,0,0,0-1.63,3.2,4.24,4.24,0,0,0,1.18,3.07,4.65,4.65,0,0,0,3,1.18,6.66,6.66,0,0,0,2.62-.26c1.17-.33,2.2-.62,2.75-1.5.46-.74.3-1.69,0-3.6a4.51,4.51,0,0,0-.72-2.35A4.62,4.62,0,0,0,12,12.1,5.08,5.08,0,0,0,10.39,12Z"/><path class="cls-6" d="M10.83,12.63A4.44,4.44,0,0,0,8.19,14a4.39,4.39,0,0,0-1.5,3,4,4,0,0,0,1.08,2.85,4.24,4.24,0,0,0,2.76,1.09,6.06,6.06,0,0,0,2.4-.24,3.92,3.92,0,0,0,2.52-1.39c.42-.68.28-1.56,0-3.33a4.2,4.2,0,0,0-.66-2.18,4.22,4.22,0,0,0-2.52-1A4.61,4.61,0,0,0,10.83,12.63Z"/><path class="cls-7" d="M10.36,20.92A4.38,4.38,0,0,1,7.51,19.8,4.08,4.08,0,0,1,6.4,16.86,4.53,4.53,0,0,1,7.94,13.8a4.58,4.58,0,0,1,2.72-1.44,4.76,4.76,0,0,1,1.49.12,4.35,4.35,0,0,1,2.6,1.06,4.34,4.34,0,0,1,.68,2.25,19.89,19.89,0,0,1,.27,2.1,16.67,16.67,0,0,0-.29-2.51A4.66,4.66,0,0,0,14.67,13a4.77,4.77,0,0,0-2.84-1.15,5.24,5.24,0,0,0-1.62-.13,5,5,0,0,0-3,1.55,4.88,4.88,0,0,0-1.69,3.31,4.38,4.38,0,0,0,1.22,3.17,4.8,4.8,0,0,0,3.11,1.22,6.28,6.28,0,0,0,1,0C10.7,20.94,10.54,20.94,10.36,20.92Z"/></g></svg>