<svg xmlns="http://www.w3.org/2000/svg" viewBox="0 0 30 30"><defs><style>.cls-1{fill:#fedd74;}.cls-2,.cls-3{fill:#d6d6d4;}.cls-2{opacity:0.29;}.cls-3{opacity:0.41;}.cls-4{fill:#fff;}.cls-5{fill:#726f67;opacity:0.09;}.cls-6,.cls-7{fill:#e8a705;}.cls-6{opacity:0.78;}.cls-8{fill:#f9c228;}.cls-9{opacity:0.43;}</style></defs><title>poachmenu-100</title><g id="Layer_3" data-name="Layer 3"><path class="cls-1" d="M10,15.2a12.35,12.35,0,0,0-.11,4c0,.78.1,1.26.46,1.51s1-.13,2.33-.16a7.74,7.74,0,0,1,2.37.4c1.18.32,1.77.47,1.92.86.33.82-1.12,1.8-.82,2.3s1.66.33,2.53-.44c.32-.29.41-.53,1.07-2.47s.76-2.26.71-2.7a3.92,3.92,0,0,0-1-2.11c-.59-.63-.92-.5-1.09-.89-.46-1,1.58-2.19,2.1-4.14S20.29,7,19.42,6.81c-.55-.1-1,.7-1.71,1.58C14.29,12.7,11,12.07,10,15.2Z"/><path class="cls-2" d="M.92,8.21C-.68,12.46,4,18.88,9.06,21.6a18.18,18.18,0,0,0,1.77.8,21.21,21.21,0,0,0,4.67,1.27c.28-.52,1-1.21.75-1.81-.16-.38-.74-.54-1.92-.86A7.74,7.74,0,0,0,12,20.6c-1.33,0-1.84.51-2.33.16s-.42-.73-.46-1.51a12.35,12.35,0,0,1,.11-4c.95-3.13,4.28-2.5,7.69-6.81.7-.88,1.17-1.68,1.71-1.58.87.15,1.64,2.51,1.1,4.51s-2.56,3.15-2.1,4.14c.18.38.51.26,1.09.89a3.92,3.92,0,0,1,1,2.11c0,.44,0,.66-.71,2.7s-.75,2.18-1.07,2.47a2.41,2.41,0,0,1-.23.17c4.75.14,8.72-1.65,10-5C29.73,14,25.29,7.65,17.87,4.7,11.59,2.2,2.68,3.58.92,8.21Z"/><path class="cls-3" d="M2.09,8.21C.48,12.46,5.14,18.88,10.22,21.6a18.18,18.18,0,0,0,1.77.8,21.21,21.21,0,0,0,4.67,1.27c.28-.52,1-1.21.75-1.81-.16-.38-.74-.54-1.92-.86a7.74,7.74,0,0,0-2.37-.4c-1.33,0-1.84.51-2.33.16s-.42-.73-.46-1.51a12.35,12.35,0,0,1,.11-4c.95-3.13,4.28-2.5,7.69-6.81.7-.88,1.17-1.68,1.71-1.58.87.15,1.64,2.51,1.1,4.51s-2.56,3.15-2.1,4.14c.18.38.51.26,1.09.89a3.92,3.92,0,0,1,1,2.11c0,.44,0,.66-.71,2.7s-.75,2.18-1.07,2.47a2.41,2.41,0,0,1-.23.17c4.75.14,8.72-1.65,10-5C30.89,14,26.45,7.65,19,4.7,12.75,2.2,3.84,3.58,2.09,8.21Z"/><path class="cls-4" d="M1.66,8.13C0,12.38,4.71,18.79,9.79,21.52a18.18,18.18,0,0,0,1.77.8,21.21,21.21,0,0,0,4.67,1.27c.28-.52,1-1.21.75-1.81-.16-.38-.74-.54-1.92-.86a7.74,7.74,0,0,0-2.37-.4c-1.33,0-1.84.51-2.33.16s-.42-.73-.46-1.51a12.35,12.35,0,0,1,.11-4c.95-3.13,4.28-2.5,7.69-6.81.7-.88,1.17-1.68,1.71-1.58.87.15,1.64,2.51,1.1,4.51s-2.56,3.15-2.1,4.14c.18.38.51.26,1.09.89a3.92,3.92,0,0,1,1,2.11c0,.44,0,.66-.71,2.7S19,23.34,18.7,23.63a2.41,2.41,0,0,1-.23.17c4.75.14,8.72-1.65,10-5C30.46,13.92,26,7.57,18.61,4.62,12.32,2.12,3.41,3.49,1.66,8.13Z"/></g><g id="Layer_5" data-name="Layer 5"><path class="cls-5" d="M19.57,27.61a23.26,23.26,0,0,0,3.16.22c.6,0,1,0,1.08-.09s-.34-.36-.69-.84a1.37,1.37,0,0,1-.26-.83c0-.41-.05-.61.21-.65.56-.08,1.69.48,2,.4s-.15-.58-1-.92a11.94,11.94,0,0,0-2.21-.5,14.1,14.1,0,0,0-2.3-.38,3.19,3.19,0,0,0-1.43.25c-.36.18-.18.3-.44.35-.67.12-2.11-.67-3.78-.94s-3.38-.12-3.29.18.8.4,1.66.69C16.57,26,16.87,27.12,19.57,27.61Z"/></g><g id="Layer_4" data-name="Layer 4"><path class="cls-6" d="M18.75,26.27a31.37,31.37,0,0,0,3.66.33c.7,0,1.12.05,1.25-.06s-.41-.37-.83-.87a1.34,1.34,0,0,1-.33-.84c-.06-.41-.08-.61.22-.64.65-.06,2,.55,2.34.47s-.19-.59-1.14-1a16.2,16.2,0,0,0-2.57-.58,19.13,19.13,0,0,0-2.68-.46,4,4,0,0,0-1.64.2c-.41.17-.19.3-.49.34-.78.1-2.47-.74-4.41-1.08s-3.92-.24-3.81.07a6,6,0,0,0,1.95.75C15.21,24.52,15.61,25.69,18.75,26.27Z"/><path class="cls-7" d="M18.75,26.27a31.37,31.37,0,0,0,3.66.33c.7,0,1.12.05,1.25-.06s-.41-.37-.83-.87a1.34,1.34,0,0,1-.33-.84c-.06-.41-.08-.61.22-.64.65-.06,2,.55,2.34.47s-.19-.59-1.14-1a16.2,16.2,0,0,0-2.57-.58,19.13,19.13,0,0,0-2.68-.46,4,4,0,0,0-1.64.2c-.41.17-.19.3-.49.34-.78.1-2.47-.74-4.41-1.08s-3.92-.24-3.81.07a6,6,0,0,0,1.95.75C15.21,24.52,15.61,25.69,18.75,26.27Z"/><path class="cls-8" d="M10.87,16a11.21,11.21,0,0,0-.1,3.6c0,.71.09,1.14.42,1.37s.9-.12,2.11-.15a7,7,0,0,1,2.16.36c1.07.29,1.6.43,1.75.78.3.74-1,1.64-.75,2.09s1.51.3,2.3-.4c.29-.26.37-.48,1-2.24s.69-2.05.65-2.45a3.56,3.56,0,0,0-.88-1.91c-.54-.57-.83-.46-1-.81-.42-.9,1.43-2,1.91-3.76s-.21-4-1-4.1c-.5-.09-.92.63-1.56,1.43C14.75,13.76,11.73,13.19,10.87,16Z"/></g><g id="Layer_6" data-name="Layer 6"><path class="cls-8" d="M10.87,16a11.21,11.21,0,0,0-.1,3.6c0,.71.09,1.14.42,1.37s.9-.12,2.11-.15a7,7,0,0,1,2.16.36c1.07.29,1.6.43,1.75.78.3.74-1,1.64-.75,2.09s1.51.3,2.3-.4c.29-.26.37-.48,1-2.24s.69-2.05.65-2.45a3.56,3.56,0,0,0-.88-1.91c-.54-.57-.83-.46-1-.81-.42-.9,1.43-2,1.91-3.76s-.21-4-1-4.1c-.5-.09-.92.63-1.56,1.43C14.75,13.76,11.73,13.19,10.87,16Z"/><g class="cls-9"><path class="cls-7" d="M19.6,17.2a2.94,2.94,0,0,1,.53,1.36c0,.35,0,.53-.57,2.15s-.6,1.74-.85,2a2,2,0,0,1-1.86.47c-.26.38-.53.71-.39.94.23.38,1.51.3,2.3-.4.29-.26.37-.48,1-2.24s.69-2.05.65-2.45A3.45,3.45,0,0,0,19.6,17.2Z"/><path class="cls-7" d="M19.4,8.41c-.5-.09-.92.63-1.56,1.43-3.1,3.91-6.12,3.34-7,6.18a11.21,11.21,0,0,0-.1,3.6c0,.71.09,1.14.42,1.37s.9-.12,2.11-.15a7,7,0,0,1,2.16.36c1,.28,1.57.43,1.73.76a.88.88,0,0,0,.17-.78c-.12-.3-.59-.43-1.53-.68a6.16,6.16,0,0,0-1.89-.32c-1.06,0-1.46.4-1.85.13s-.33-.58-.37-1.2A9.82,9.82,0,0,1,11.8,16c.75-2.49,3.4-2,6.11-5.42.56-.7.93-1.33,1.36-1.26.69.12,1.3,2,.88,3.59-.37,1.38-1.69,2.29-1.71,3,.09-.84,1.55-1.86,2-3.4C20.89,10.69,20.19,8.55,19.4,8.41Z"/></g></g></svg>