<svg id="Layer_1" data-name="Layer 1" xmlns="http://www.w3.org/2000/svg" xmlns:xlink="http://www.w3.org/1999/xlink" viewBox="0 0 200 100"><defs><style>.cls-1{fill:none;}.cls-2{fill:#d9cba8;}.cls-3{clip-path:url(#clip-path);}.cls-4{fill:#fff;}.cls-5,.cls-8{fill:#f9c228;}.cls-6{fill:#fedd74;}.cls-7{fill:#f9eac7;opacity:0.63;}.cls-8{opacity:0.44;}</style><clipPath id="clip-path"><rect class="cls-1" y="-0.27" width="200.26" height="100.27"/></clipPath></defs><title>Softboil-100</title><rect class="cls-2" y="-0.27" width="200.26" height="100.27"/><g class="cls-3"><ellipse class="cls-4" cx="76.86" cy="4.26" rx="14.91" ry="22.63"/><circle class="cls-5" cx="77.44" cy="-2.2" r="9.92"/><circle class="cls-6" cx="76.87" cy="-2.77" r="9.35"/><path class="cls-7" d="M85.56-2.48c-.66,4.86-5.18,8.81-8.81,8.81a8.81,8.81,0,0,1-8.8-8.54,1.4,1.4,0,0,0,0,.27c1.27,4.65.45,9.11,4.43,14.09,1.6,2,4.45,4.7,5.48,4.08S76,11.59,77.28,7.41C79,1.78,86.73,1.3,86.63-1.94c-.1-3.41-8.7-4.24-9.35-9.35-.14-1.1.06-2.63.81-2.93C79.9-14.94,86.46-9.11,85.56-2.48Z"/><path class="cls-6" d="M85.56-2.17c-.66,4.31-5.18,7.8-8.81,7.8-4.78,0-8.66-3.37-8.8-7.57a1.1,1.1,0,0,0,0,.24c1.27,4.12.45,8.07,4.43,12.48,1.6,1.78,4.45,4.16,5.48,3.61S76,10.3,77.28,6.59c1.71-5,9.45-5.41,9.35-8.28S77.93-5.45,77.28-10c-.14-1,.06-2.33.81-2.6C79.9-13.2,86.46-8,85.56-2.17Z"/><circle class="cls-8" cx="76.46" cy="-3.59" r="8.53"/><ellipse class="cls-4" cx="33.63" cy="4.26" rx="14.91" ry="22.63"/><circle class="cls-5" cx="34.21" cy="-2.2" r="9.92"/><circle class="cls-6" cx="33.64" cy="-2.77" r="9.35"/><path class="cls-7" d="M42.32-2.48c-.66,4.86-5.18,8.81-8.81,8.81a8.81,8.81,0,0,1-8.8-8.54,1.4,1.4,0,0,0,0,.27c1.27,4.65.45,9.11,4.43,14.09,1.6,2,4.45,4.7,5.48,4.08s-1.83-4.63-.56-8.82C35.76,1.78,43.5,1.3,43.4-1.94c-.1-3.41-8.7-4.24-9.35-9.35-.14-1.1.06-2.63.81-2.93C36.67-14.94,43.22-9.11,42.32-2.48Z"/><path class="cls-6" d="M42.32-2.17c-.66,4.31-5.18,7.8-8.81,7.8-4.78,0-8.66-3.37-8.8-7.57a1.1,1.1,0,0,0,0,.24c1.27,4.12.45,8.07,4.43,12.48,1.6,1.78,4.45,4.16,5.48,3.61s-1.83-4.1-.56-7.81c1.71-5,9.45-5.41,9.35-8.28S34.7-5.45,34.05-10c-.14-1,.06-2.33.81-2.6C36.67-13.2,43.22-8,42.32-2.17Z"/><circle class="cls-8" cx="33.23" cy="-3.59" r="8.53"/><ellipse class="cls-4" cx="167.74" cy="4.26" rx="14.91" ry="22.63"/><circle class="cls-5" cx="168.32" cy="-2.2" r="9.92"/><circle class="cls-6" cx="167.75" cy="-2.77" r="9.35"/><path class="cls-7" d="M176.44-2.48c-.66,4.86-5.18,8.81-8.81,8.81a8.81,8.81,0,0,1-8.8-8.54,1.4,1.4,0,0,0,0,.27c1.27,4.65.45,9.11,4.43,14.09,1.6,2,4.45,4.7,5.48,4.08s-1.83-4.63-.56-8.82c1.71-5.63,9.45-6.11,9.35-9.35-.1-3.41-8.7-4.24-9.35-9.35-.14-1.1.06-2.63.81-2.93C170.78-14.94,177.34-9.11,176.44-2.48Z"/><path class="cls-6" d="M176.44-2.17c-.66,4.31-5.18,7.8-8.81,7.8-4.78,0-8.66-3.37-8.8-7.57a1.1,1.1,0,0,0,0,.24c1.27,4.12.45,8.07,4.43,12.48,1.6,1.78,4.45,4.16,5.48,3.61s-1.83-4.1-.56-7.81c1.71-5,9.45-5.41,9.35-8.28s-8.7-3.76-9.35-8.28c-.14-1,.06-2.33.81-2.6C170.78-13.2,177.34-8,176.44-2.17Z"/><circle class="cls-8" cx="167.34" cy="-3.59" r="8.53"/><ellipse class="cls-4" cx="124.51" cy="4.26" rx="14.91" ry="22.63"/><circle class="cls-5" cx="125.09" cy="-2.2" r="9.92"/><circle class="cls-6" cx="124.52" cy="-2.77" r="9.35"/><path class="cls-7" d="M133.21-2.48c-.66,4.86-5.18,8.81-8.81,8.81a8.81,8.81,0,0,1-8.8-8.54,1.4,1.4,0,0,0,0,.27c1.27,4.65.45,9.11,4.43,14.09,1.6,2,4.45,4.7,5.48,4.08s-1.83-4.63-.56-8.82c1.71-5.63,9.45-6.11,9.35-9.35-.1-3.41-8.7-4.24-9.35-9.35-.14-1.1.06-2.63.81-2.93C127.55-14.94,134.11-9.11,133.21-2.48Z"/><path class="cls-6" d="M133.21-2.17c-.66,4.31-5.18,7.8-8.81,7.8-4.78,0-8.66-3.37-8.8-7.57a1.1,1.1,0,0,0,0,.24c1.27,4.12.45,8.07,4.43,12.48,1.6,1.78,4.45,4.16,5.48,3.61s-1.83-4.1-.56-7.81c1.71-5,9.45-5.41,9.35-8.28s-8.7-3.76-9.35-8.28c-.14-1,.06-2.33.81-2.6C127.55-13.2,134.11-8,133.21-2.17Z"/><circle class="cls-8" cx="124.11" cy="-3.59" r="8.53"/><ellipse class="cls-4" cx="104.46" cy="50.77" rx="14.91" ry="22.63"/><circle class="cls-5" cx="103.88" cy="57.24" r="9.92"/><circle class="cls-6" cx="104.45" cy="57.81" r="9.35"/><path class="cls-7" d="M95.76,57.52c.66-4.86,5.18-8.81,8.81-8.81a8.81,8.81,0,0,1,8.8,8.54,1.4,1.4,0,0,0,0-.27c-1.27-4.65-.45-9.11-4.43-14.09-1.6-2-4.45-4.7-5.48-4.08s1.83,4.63.56,8.82c-1.71,5.63-9.45,6.11-9.35,9.35.1,3.41,8.7,4.24,9.35,9.35.14,1.1-.06,2.63-.81,2.93C101.42,70,94.86,64.15,95.76,57.52Z"/><path class="cls-6" d="M95.76,57.21c.66-4.31,5.18-7.8,8.81-7.8,4.78,0,8.66,3.37,8.8,7.57a1.1,1.1,0,0,0,0-.24c-1.27-4.12-.45-8.07-4.43-12.48-1.6-1.78-4.45-4.16-5.48-3.61s1.83,4.1.56,7.81c-1.71,5-9.45,5.41-9.35,8.28s8.7,3.76,9.35,8.28c.14,1-.06,2.33-.81,2.6C101.42,68.24,94.86,63.08,95.76,57.21Z"/><circle class="cls-8" cx="104.86" cy="58.63" r="8.53"/><ellipse class="cls-4" cx="147.69" cy="50.77" rx="14.91" ry="22.63"/><circle class="cls-5" cx="147.11" cy="57.24" r="9.92"/><circle class="cls-6" cx="147.68" cy="57.81" r="9.35"/><path class="cls-7" d="M139,57.52c.66-4.86,5.18-8.81,8.81-8.81a8.81,8.81,0,0,1,8.8,8.54,1.4,1.4,0,0,0,0-.27c-1.27-4.65-.45-9.11-4.43-14.09-1.6-2-4.45-4.7-5.48-4.08s1.83,4.63.56,8.82c-1.71,5.63-9.45,6.11-9.35,9.35.1,3.41,8.7,4.24,9.35,9.35.14,1.1-.06,2.63-.81,2.93C144.65,70,138.1,64.15,139,57.52Z"/><path class="cls-6" d="M139,57.21c.66-4.31,5.18-7.8,8.81-7.8,4.78,0,8.66,3.37,8.8,7.57a1.1,1.1,0,0,0,0-.24c-1.27-4.12-.45-8.07-4.43-12.48-1.6-1.78-4.45-4.16-5.48-3.61s1.83,4.1.56,7.81c-1.71,5-9.45,5.41-9.35,8.28s8.7,3.76,9.35,8.28c.14,1-.06,2.33-.81,2.6C144.65,68.24,138.1,63.08,139,57.21Z"/><circle class="cls-8" cx="148.09" cy="58.63" r="8.53"/><ellipse class="cls-4" cx="192" cy="50.77" rx="14.91" ry="22.63"/><circle class="cls-5" cx="191.42" cy="57.24" r="9.92"/><circle class="cls-6" cx="191.99" cy="57.81" r="9.35"/><path class="cls-7" d="M183.3,57.52c.66-4.86,5.18-8.81,8.81-8.81a8.81,8.81,0,0,1,8.8,8.54,1.4,1.4,0,0,0,0-.27c-1.27-4.65-.45-9.11-4.43-14.09-1.6-2-4.45-4.7-5.48-4.08s1.83,4.63.56,8.82c-1.71,5.63-9.45,6.11-9.35,9.35.1,3.41,8.7,4.24,9.35,9.35.14,1.1-.06,2.63-.81,2.93C189,70,182.4,64.15,183.3,57.52Z"/><path class="cls-6" d="M183.3,57.21c.66-4.31,5.18-7.8,8.81-7.8,4.78,0,8.66,3.37,8.8,7.57a1.1,1.1,0,0,0,0-.24c-1.27-4.12-.45-8.07-4.43-12.48-1.6-1.78-4.45-4.16-5.48-3.61s1.83,4.1.56,7.81c-1.71,5-9.45,5.41-9.35,8.28s8.7,3.76,9.35,8.28c.14,1-.06,2.33-.81,2.6C189,68.24,182.4,63.08,183.3,57.21Z"/><circle class="cls-8" cx="192.4" cy="58.63" r="8.53"/><ellipse class="cls-4" cx="13.58" cy="50.77" rx="14.91" ry="22.63"/><circle class="cls-5" cx="13" cy="57.24" r="9.92"/><circle class="cls-6" cx="13.57" cy="57.81" r="9.35"/><path class="cls-7" d="M4.88,57.52c.66-4.86,5.18-8.81,8.81-8.81a8.81,8.81,0,0,1,8.8,8.54,1.4,1.4,0,0,0,0-.27c-1.27-4.65-.45-9.11-4.43-14.09-1.6-2-4.45-4.7-5.48-4.08s1.83,4.63.56,8.82C11.44,53.26,3.71,53.74,3.8,57c.1,3.41,8.7,4.24,9.35,9.35.14,1.1-.06,2.63-.81,2.93C10.53,70,4,64.15,4.88,57.52Z"/><path class="cls-6" d="M4.88,57.21c.66-4.31,5.18-7.8,8.81-7.8,4.78,0,8.66,3.37,8.8,7.57a1.1,1.1,0,0,0,0-.24c-1.27-4.12-.45-8.07-4.43-12.48-1.6-1.78-4.45-4.16-5.48-3.61s1.83,4.1.56,7.81c-1.71,5-9.45,5.41-9.35,8.28s8.7,3.76,9.35,8.28c.14,1-.06,2.33-.81,2.6C10.53,68.24,4,63.08,4.88,57.21Z"/><circle class="cls-8" cx="13.98" cy="58.63" r="8.53"/><ellipse class="cls-4" cx="56.81" cy="50.77" rx="14.91" ry="22.63"/><circle class="cls-5" cx="56.23" cy="57.24" r="9.92"/><circle class="cls-6" cx="56.8" cy="57.81" r="9.35"/><path class="cls-7" d="M48.11,57.52c.66-4.86,5.18-8.81,8.81-8.81a8.81,8.81,0,0,1,8.8,8.54,1.4,1.4,0,0,0,0-.27c-1.27-4.65-.45-9.11-4.43-14.09-1.6-2-4.45-4.7-5.48-4.08s1.83,4.63.56,8.82C54.67,53.26,46.94,53.74,47,57c.1,3.41,8.7,4.24,9.35,9.35.14,1.1-.06,2.63-.81,2.93C53.77,70,47.21,64.15,48.11,57.52Z"/><path class="cls-6" d="M48.11,57.21c.66-4.31,5.18-7.8,8.81-7.8,4.78,0,8.66,3.37,8.8,7.57a1.1,1.1,0,0,0,0-.24c-1.27-4.12-.45-8.07-4.43-12.48-1.6-1.78-4.45-4.16-5.48-3.61s1.83,4.1.56,7.81c-1.71,5-9.45,5.41-9.35,8.28s8.7,3.76,9.35,8.28c.14,1-.06,2.33-.81,2.6C53.77,68.24,47.21,63.08,48.11,57.21Z"/><circle class="cls-8" cx="57.21" cy="58.63" r="8.53"/><ellipse class="cls-4" cx="78.93" cy="100.33" rx="14.91" ry="22.63"/><circle class="cls-5" cx="79.51" cy="93.87" r="9.92"/><circle class="cls-6" cx="78.94" cy="93.3" r="9.35"/><path class="cls-7" d="M87.63,93.59c-.66,4.86-5.18,8.81-8.81,8.81A8.81,8.81,0,0,1,70,93.86a1.4,1.4,0,0,0,0,.27c1.27,4.65.45,9.11,4.43,14.09,1.6,2,4.45,4.7,5.48,4.08s-1.83-4.63-.56-8.82c1.71-5.63,9.45-6.11,9.35-9.35-.1-3.41-8.7-4.24-9.35-9.35-.14-1.1.06-2.63.81-2.93C82,81.13,88.53,87,87.63,93.59Z"/><path class="cls-6" d="M87.63,93.9c-.66,4.31-5.18,7.8-8.81,7.8-4.78,0-8.66-3.37-8.8-7.57a1.1,1.1,0,0,0,0,.24c1.27,4.12.45,8.07,4.43,12.48,1.6,1.78,4.45,4.16,5.48,3.61s-1.83-4.1-.56-7.81c1.71-5,9.45-5.41,9.35-8.28S80,90.62,79.36,86.1c-.14-1,.06-2.33.81-2.6C82,82.87,88.53,88,87.63,93.9Z"/><circle class="cls-8" cx="78.53" cy="92.48" r="8.53"/><ellipse class="cls-4" cx="35.7" cy="100.33" rx="14.91" ry="22.63"/><circle class="cls-5" cx="36.28" cy="93.87" r="9.92"/><circle class="cls-6" cx="35.71" cy="93.3" r="9.35"/><path class="cls-7" d="M44.4,93.59c-.66,4.86-5.18,8.81-8.81,8.81a8.81,8.81,0,0,1-8.8-8.54,1.4,1.4,0,0,0,0,.27c1.27,4.65.45,9.11,4.43,14.09,1.6,2,4.45,4.7,5.48,4.08s-1.83-4.63-.56-8.82c1.71-5.63,9.45-6.11,9.35-9.35-.1-3.41-8.7-4.24-9.35-9.35-.14-1.1.06-2.63.81-2.93C38.74,81.13,45.3,87,44.4,93.59Z"/><path class="cls-6" d="M44.4,93.9c-.66,4.31-5.18,7.8-8.81,7.8-4.78,0-8.66-3.37-8.8-7.57a1.1,1.1,0,0,0,0,.24c1.27,4.12.45,8.07,4.43,12.48,1.6,1.78,4.45,4.16,5.48,3.61s-1.83-4.1-.56-7.81c1.71-5,9.45-5.41,9.35-8.28s-8.7-3.76-9.35-8.28c-.14-1,.06-2.33.81-2.6C38.74,82.87,45.3,88,44.4,93.9Z"/><circle class="cls-8" cx="35.3" cy="92.48" r="8.53"/><ellipse class="cls-4" cx="169.82" cy="100.33" rx="14.91" ry="22.63"/><circle class="cls-5" cx="170.39" cy="93.87" r="9.92"/><circle class="cls-6" cx="169.82" cy="93.3" r="9.35"/><path class="cls-7" d="M178.51,93.59c-.66,4.86-5.18,8.81-8.81,8.81a8.81,8.81,0,0,1-8.8-8.54,1.4,1.4,0,0,0,0,.27c1.27,4.65.45,9.11,4.43,14.09,1.6,2,4.45,4.7,5.48,4.08s-1.83-4.63-.56-8.82c1.71-5.63,9.45-6.11,9.35-9.35-.1-3.41-8.7-4.24-9.35-9.35-.14-1.1.06-2.63.81-2.93C172.86,81.13,179.41,87,178.51,93.59Z"/><path class="cls-6" d="M178.51,93.9c-.66,4.31-5.18,7.8-8.81,7.8-4.78,0-8.66-3.37-8.8-7.57a1.1,1.1,0,0,0,0,.24c1.27,4.12.45,8.07,4.43,12.48,1.6,1.78,4.45,4.16,5.48,3.61s-1.83-4.1-.56-7.81c1.71-5,9.45-5.41,9.35-8.28s-8.7-3.76-9.35-8.28c-.14-1,.06-2.33.81-2.6C172.86,82.87,179.41,88,178.51,93.9Z"/><circle class="cls-8" cx="169.41" cy="92.48" r="8.53"/><ellipse class="cls-4" cx="126.58" cy="100.33" rx="14.91" ry="22.63"/><circle class="cls-5" cx="127.16" cy="93.87" r="9.92"/><circle class="cls-6" cx="126.59" cy="93.3" r="9.35"/><path class="cls-7" d="M135.28,93.59c-.66,4.86-5.18,8.81-8.81,8.81a8.81,8.81,0,0,1-8.8-8.54,1.4,1.4,0,0,0,0,.27c1.27,4.65.45,9.11,4.43,14.09,1.6,2,4.45,4.7,5.48,4.08s-1.83-4.63-.56-8.82c1.71-5.63,9.45-6.11,9.35-9.35-.1-3.41-8.7-4.24-9.35-9.35-.14-1.1.06-2.63.81-2.93C129.63,81.13,136.18,87,135.28,93.59Z"/><path class="cls-6" d="M135.28,93.9c-.66,4.31-5.18,7.8-8.81,7.8-4.78,0-8.66-3.37-8.8-7.57a1.1,1.1,0,0,0,0,.24c1.27,4.12.45,8.07,4.43,12.48,1.6,1.78,4.45,4.16,5.48,3.61s-1.83-4.1-.56-7.81c1.71-5,9.45-5.41,9.35-8.28s-8.7-3.76-9.35-8.28c-.14-1,.06-2.33.81-2.6C129.63,82.87,136.18,88,135.28,93.9Z"/><circle class="cls-8" cx="126.18" cy="92.48" r="8.53"/></g></svg>