<svg id="Layer_1" data-name="Layer 1" xmlns="http://www.w3.org/2000/svg" viewBox="0 0 16.39 24.87"><defs><style>.cls-1{fill:#fff;}.cls-2,.cls-5{fill:#f9c228;}.cls-3{fill:#fedd74;}.cls-4{fill:#f9eac7;opacity:0.63;}.cls-5{opacity:0.44;}</style></defs><title>softboilmenu</title><ellipse class="cls-1" cx="8.2" cy="12.43" rx="8.2" ry="12.43"/><circle class="cls-2" cx="7.88" cy="15.99" r="5.45"/><circle class="cls-3" cx="8.19" cy="16.3" r="5.14"/><path class="cls-4" d="M10.41,17.74c.36-2.67,2.84-4.84,4.84-4.84a4.84,4.84,0,0,1,4.84,4.69.77.77,0,0,0,0-.15c-.7-2.56-.25-5-2.43-7.74-.88-1.1-2.45-2.58-3-2.24s1,2.54.31,4.85C14,15.4,9.77,15.66,9.82,17.44S14.6,19.78,15,22.58c.08.6,0,1.45-.45,1.61C13.52,24.59,9.92,21.38,10.41,17.74Z" transform="translate(-7 -1.6)"/><path class="cls-3" d="M10.41,17.57a5.41,5.41,0,0,1,4.84-4.29,4.61,4.61,0,0,1,4.84,4.16.6.6,0,0,0,0-.13c-.7-2.26-.25-4.43-2.43-6.86-.88-1-2.45-2.29-3-2s1,2.25.31,4.29c-.94,2.74-5.19,3-5.14,4.55S14.6,19.37,15,21.86c.08.53,0,1.28-.45,1.43C13.52,23.63,9.92,20.8,10.41,17.57Z" transform="translate(-7 -1.6)"/><circle class="cls-5" cx="8.42" cy="16.75" r="4.69"/></svg>